<?xml version="1.0" encoding="UTF-8"?>
<svg id="Layer_2" data-name="Layer 2" xmlns="http://www.w3.org/2000/svg" viewBox="0 0 223.73 59.66">
  <defs>
    <style>
      .cls-1 {
        fill: #fff;
      }

      .cls-2 {
        fill: #e40614;
      }
    </style>
  </defs>
  <g id="Layer_1-2" data-name="Layer 1">
    <g>
      <path class="cls-2" d="M218.95,59.66H4.78c-2.64,0-4.78-2.14-4.78-4.78V4.79C0,2.14,2.14,0,4.78,0h214.17c2.64,0,4.78,2.14,4.78,4.79v50.09c0,2.64-2.14,4.78-4.78,4.78"/>
      <path class="cls-1" d="M58.54,18.96h-19.06c-.42,0-.74-.39-.66-.81l1.45-7.18c.06-.31.34-.54.66-.54h20.44c.42,0,.74.39.66.81l-1.17,5.81c-.22,1.11-1.2,1.91-2.33,1.91"/>
      <path class="cls-1" d="M55.73,33.27h-29.3c-.42,0-.74-.39-.66-.8l1.77-8.94c.06-.31.34-.54.66-.54h30.77c.43,0,.75.39.66.81l-1.57,7.57c-.23,1.1-1.2,1.9-2.33,1.9"/>
      <path class="cls-1" d="M52.62,49.22H13.02c-.42,0-.74-.38-.66-.8l1.98-10.26c.06-.32.34-.55.66-.55h41.16c.43,0,.75.39.66.81l-1.86,8.91c-.23,1.1-1.2,1.89-2.33,1.89"/>
      <path class="cls-1" d="M119.22,10.98c.06-.32.32-.54.63-.54h25.29c6.06,0,9.52,1.01,12.26,3.03,2.75,2.02,3.88,4.91,3.37,8.67-.52,3.88-1.11,14.43-21.21,14.43h-9.21c-.3,0-.57.23-.63.54l-1.9,9.85c-.24,1.26-1.29,2.17-2.5,2.17h-12.64c-.4,0-.7-.39-.61-.8l7.16-37.35ZM131.75,26.97c-.08.42.21.8.61.8h2.48c3.26,0,6.47-.24,7.91-1.04,4.2-2.36,2.58-5.91,1.34-6.66-1.02-.84-4.23-.97-7.37-.97h-2.91c-.3,0-.57.23-.63.54l-1.43,7.32Z"/>
      <path class="cls-1" d="M191.29,43.1l-19.58-.03c-.2,0-.39.11-.52.29l-2.99,4.28c-.64.92-1.62,1.46-2.63,1.46l-13.09-.02c-.49,0-.73-.61-.43-1.05l25.87-37.28c.12-.18.32-.29.52-.29l16.58.02c.3,0,.55.13.62.34l13.19,37.57c.13.36-.29.76-.81.76h-12.8c-1.13-.02-2.08-.79-2.4-1.96l-1-3.65c-.07-.26-.29-.43-.54-.44M189.36,33.26l-3.42-11.73c-.15-.51-.77-.57-1.06-.12l-7.6,11.71c-.29.45-.04,1.04.44,1.04h11.02c.43.01.75-.47.62-.91"/>
      <path class="cls-1" d="M111.24,10.44h-41.23c-.3,0-.57.23-.63.55l-7.17,37.35c-.08.42.22.8.61.8h39.59c1.2,0,2.25-.9,2.5-2.15l1.21-5.96c.08-.42-.21-.81-.61-.81h-25.49c-.4,0-.69-.38-.62-.79l1.04-5.46h21.56c1.21,0,2.26-.9,2.5-2.16l1.15-5.8c.08-.42-.21-.8-.61-.8h-22.9l1.11-5.61c.06-.32.33-.54.63-.54h24.33c1.2,0,2.25-.9,2.5-2.15l1.13-5.66c.08-.42-.21-.81-.61-.81"/>
      <path class="cls-1" d="M210.69,13.03c-1.25-2.05-3.61-2.95-5.95-2.23-.22.07-.44.16-.65.27-2.26,1.19-3.29,3.67-2.53,6.11.07.22.16.44.27.65,1.19,2.27,3.67,3.3,6.12,2.54.22-.07.44-.16.65-.27,2.16-1.14,3.2-3.45,2.62-5.79-.11-.45-.29-.89-.53-1.28M206.35,11.49c1.09,0,2.12.43,2.89,1.2.77.77,1.2,1.8,1.2,2.89s-.43,2.12-1.2,2.89c-.77.77-1.8,1.2-2.89,1.2s-2.12-.43-2.89-1.2c-.77-.77-1.2-1.8-1.2-2.89s.43-2.12,1.2-2.89c.77-.77,1.8-1.2,2.89-1.2"/>
      <path class="cls-1" d="M205.14,17.74c.17,0,.32-.06.42-.18.11-.11.16-.28.16-.49v-1.06h.09c.11,0,.21.01.28.04.06.03.13.08.2.16.08.09.18.23.28.41l.32.53c.08.13.14.22.18.29.06.08.12.15.21.21.09.06.2.1.33.1.11,0,.2-.02.28-.06.09-.05.16-.11.21-.19.05-.08.08-.17.08-.26,0-.08-.03-.18-.1-.35-.06-.14-.14-.29-.25-.47-.1-.17-.23-.34-.36-.49-.04-.05-.08-.09-.13-.13.19-.08.35-.18.47-.31.2-.21.3-.49.3-.83,0-.17-.03-.32-.09-.47-.06-.15-.14-.28-.26-.4-.11-.11-.24-.2-.38-.26-.12-.05-.25-.09-.4-.11-.13-.02-.29-.02-.48-.02h-1.28c-.22,0-.39.06-.51.17-.11.11-.17.28-.17.5v3c0,.2.05.36.15.48.07.09.21.19.44.19M206.88,14.53c.03.05.05.11.05.18,0,.09-.02.16-.06.2-.04.05-.11.09-.2.11-.11.03-.26.04-.43.04h-.52v-.69h.54c.33,0,.44.03.47.04.06.02.11.06.14.11"/>
    </g>
  </g>
</svg>