<?xml version="1.0" encoding="UTF-8"?>
<svg id="Layer_2" data-name="Layer 2" xmlns="http://www.w3.org/2000/svg" viewBox="0 0 59.66 59.66">
  <defs>
    <style>
      .cls-1 {
        fill: #fff;
      }

      .cls-2 {
        fill: #e40614;
      }
    </style>
  </defs>
  <g id="Layer_1-2" data-name="Layer 1">
    <path class="cls-2" d="M54.88,59.66H4.78c-2.64,0-4.78-2.14-4.78-4.78V4.79C0,2.14,2.14,0,4.78,0h50.1c2.64,0,4.78,2.14,4.78,4.79v50.09c0,2.64-2.14,4.78-4.78,4.78"/>
    <g>
      <path class="cls-1" d="M49.09,20.02h-17.2c-.38,0-.67-.35-.59-.73l1.31-6.48c.06-.28.31-.49.59-.49h18.45c.38,0,.67.35.59.73l-1.05,5.24c-.2,1-1.08,1.72-2.11,1.72"/>
      <path class="cls-1" d="M46.55,32.94h-26.45c-.38,0-.67-.35-.59-.72l1.6-8.07c.06-.28.31-.49.59-.49h27.77c.39,0,.67.35.6.73l-1.41,6.84c-.21,1-1.08,1.71-2.1,1.71"/>
      <path class="cls-1" d="M43.75,47.33H8c-.38,0-.67-.35-.6-.72l1.78-9.26c.06-.29.31-.49.6-.49h37.15c.39,0,.67.35.59.73l-1.68,8.04c-.21.99-1.08,1.71-2.1,1.71"/>
    </g>
  </g>
</svg>